<svg xmlns="http://www.w3.org/2000/svg" viewBox="0 0 116.95 166.98"><defs><style>.cls-1{isolation:isolate;}.cls-2{fill:#ef9ec5;}.cls-3,.cls-8{fill:#861d58;}.cls-4{fill:#f4cbab;}.cls-5{fill:#0b1213;}.cls-6{fill:#f0bb8f;opacity:0.4;}.cls-6,.cls-7,.cls-8{mix-blend-mode:multiply;}.cls-7{fill:#d64090;}.cls-7,.cls-8{opacity:0.6;}.cls-9{fill:#673922;}</style></defs><title>Character 08</title><g class="cls-1"><g id="Layer_2" data-name="Layer 2"><g id="Temp"><rect class="cls-2" x="9.83" y="84.77" width="85.02" height="29.7"/><path class="cls-3" d="M94.85,114.47h-85a29.71,29.71,0,0,0,29.71,29.7H65.15A29.7,29.7,0,0,0,94.85,114.47Z"/><path class="cls-4" d="M94.85,61.9V50.56a29.7,29.7,0,0,0-29.7-29.71H39.54A29.71,29.71,0,0,0,9.83,50.56V84.77h85v-8a7.43,7.43,0,1,0,0-14.85Z"/><rect class="cls-5" x="35.33" y="65.92" width="2" height="7.49" rx="0.85"/><rect class="cls-5" x="55.46" y="65.92" width="2" height="7.49" rx="0.85"/><path class="cls-5" d="M59.38,78.67a.5.5,0,0,1-.5.5H47.26a.5.5,0,0,1-.5-.5.5.5,0,0,1,.5-.5H58.88A.51.51,0,0,1,59.38,78.67Z"/><path class="cls-6" d="M48.67,20.85H39.54A29.71,29.71,0,0,0,9.83,50.56V84.77H19V50.56A29.71,29.71,0,0,1,48.67,20.85Z"/><rect class="cls-7" x="9.83" y="84.77" width="9.14" height="29.7"/><path class="cls-8" d="M19,114.47H9.83a29.71,29.71,0,0,0,29.71,29.7h9.13A29.7,29.7,0,0,1,19,114.47Z"/><path class="cls-3" d="M60.73,159.56A7.43,7.43,0,0,0,53.3,167H68.15A7.42,7.42,0,0,0,60.73,159.56Z"/><path class="cls-3" d="M43.88,159.56A7.42,7.42,0,0,0,36.45,167H51.3A7.42,7.42,0,0,0,43.88,159.56Z"/><path class="cls-4" d="M60.73,159.56a7.5,7.5,0,0,1,2.68.5V146.85a2.68,2.68,0,1,0-5.36,0v13.21A7.42,7.42,0,0,1,60.73,159.56Z"/><path class="cls-4" d="M43.88,159.56a7.5,7.5,0,0,1,2.68.5V146.85a2.69,2.69,0,0,0-5.37,0v13.21A7.52,7.52,0,0,1,43.88,159.56Z"/><path class="cls-9" d="M117,39.8A22.09,22.09,0,0,0,89.71,18.31,22,22,0,0,0,50.1,9.21,20.54,20.54,0,0,0,14.77,23.49a20.29,20.29,0,0,0,.88,5.92c-.32,0-.64-.05-1-.05A14.69,14.69,0,1,0,29.36,44.05c0-.31,0-.6,0-.9a20.52,20.52,0,0,0,22-6.76,22,22,0,0,0,21.74,7.07A22.11,22.11,0,0,0,94.85,61.9a7.43,7.43,0,1,1,0,14.85v8a17.18,17.18,0,0,0,13.67-27.62A22,22,0,0,0,117,39.8Z"/><circle class="cls-4" cx="80" cy="121.9" r="7.43"/></g></g></g></svg>