<svg xmlns="http://www.w3.org/2000/svg" viewBox="0 0 125.7 146.13"><defs><style>.cls-1{isolation:isolate;}.cls-2{fill:#f2ece0;}.cls-3{fill:#c47450;}.cls-4,.cls-7{fill:#a5976c;}.cls-5{fill:#0b1213;}.cls-6{fill:#e8dfce;}.cls-7{opacity:0.5;mix-blend-mode:multiply;}.cls-8{fill:#d20a11;}.cls-9{fill:#b81210;}.cls-10{fill:#9d5d2f;}</style></defs><title>Character 07</title><g class="cls-1"><g id="Layer_2" data-name="Layer 2"><g id="Temp"><rect class="cls-2" y="63.91" width="85.02" height="29.7"/><path class="cls-3" d="M85,41V29.7A29.7,29.7,0,0,0,55.32,0H29.7A29.7,29.7,0,0,0,0,29.7V63.91H85v-8A7.43,7.43,0,1,0,85,41Z"/><path class="cls-4" d="M85,93.62H0a29.7,29.7,0,0,0,29.7,29.7H55.32A29.7,29.7,0,0,0,85,93.62Z"/><rect class="cls-5" x="25.5" y="45.06" width="2" height="7.49" rx="0.85"/><rect class="cls-5" x="45.63" y="45.06" width="2" height="7.49" rx="0.85"/><rect class="cls-6" y="63.91" width="9.14" height="29.7"/><path class="cls-7" d="M9.14,93.62H0a29.7,29.7,0,0,0,29.7,29.7h9.14A29.7,29.7,0,0,1,9.14,93.62Z"/><path class="cls-8" d="M50.89,138.7a7.43,7.43,0,0,0-7.42,7.43H58.32A7.43,7.43,0,0,0,50.89,138.7Z"/><path class="cls-8" d="M34,138.7a7.43,7.43,0,0,0-7.42,7.43H41.47A7.43,7.43,0,0,0,34,138.7Z"/><path class="cls-4" d="M50.89,138.7a7.43,7.43,0,0,1,2.68.51V126a2.68,2.68,0,0,0-5.36,0v13.21A7.51,7.51,0,0,1,50.89,138.7Z"/><path class="cls-4" d="M34,138.7a7.43,7.43,0,0,1,2.68.51V126a2.68,2.68,0,0,0-5.36,0v13.21A7.47,7.47,0,0,1,34,138.7Z"/><path class="cls-9" d="M123.15,24.6H84.57A29.58,29.58,0,0,1,85,29.7h38.13a2.55,2.55,0,0,0,0-5.1Z"/><path class="cls-5" d="M49.63,57.82a.51.51,0,0,1-.5.5H37.51a.51.51,0,0,1-.5-.5.5.5,0,0,1,.5-.5H49.13A.5.5,0,0,1,49.63,57.82Z"/><path class="cls-10" d="M16.83,2.93c.86-.42,1.75-.79,2.66-1.13C18.58,2.14,17.69,2.51,16.83,2.93Z"/><rect class="cls-10" y="29.7" width="9.14" height="34.21"/><path class="cls-8" d="M55.32,0H29.7A29.7,29.7,0,0,0,0,29.7H85A29.7,29.7,0,0,0,55.32,0ZM18.07,24.6a7.43,7.43,0,0,1,14.86,0Z"/><path class="cls-9" d="M29.7,0A29.74,29.74,0,0,0,19.49,1.8c-.91.34-1.8.71-2.66,1.13A29.7,29.7,0,0,0,0,29.7H9.14A29.7,29.7,0,0,1,38.84,0Z"/><circle class="cls-3" cx="70.17" cy="101.04" r="7.43"/><path class="cls-10" d="M62.74,101a7.44,7.44,0,0,1,6-7.29,8.22,8.22,0,0,0-1.41-.13,7.43,7.43,0,0,0,0,14.85,7.33,7.33,0,0,0,1.41-.14A7.44,7.44,0,0,1,62.74,101Z"/><path class="cls-7" d="M53.57,139.21v-1.7a7.22,7.22,0,0,0-2.68-.51,7.3,7.3,0,0,0-2.68.51v1.7a7.51,7.51,0,0,1,2.68-.51A7.43,7.43,0,0,1,53.57,139.21Z"/><path class="cls-7" d="M36.72,139.21v-1.7a7.3,7.3,0,0,0-5.36,0v1.7a7.3,7.3,0,0,1,5.36,0Z"/><path class="cls-9" d="M35,138.78a6.63,6.63,0,0,0-1-.08,7.43,7.43,0,0,0-7.42,7.43h2A7.42,7.42,0,0,1,35,138.78Z"/><path class="cls-9" d="M51.89,138.78a6.53,6.53,0,0,0-1-.08,7.43,7.43,0,0,0-7.42,7.43h2A7.42,7.42,0,0,1,51.89,138.78Z"/><path class="cls-10" d="M26.52,17.25a6.8,6.8,0,0,0-1-.08,7.43,7.43,0,0,0-7.43,7.43h2.05A7.41,7.41,0,0,1,26.52,17.25Z"/></g></g></g></svg>