<svg xmlns="http://www.w3.org/2000/svg" viewBox="0 0 107.46 146.13"><defs><style>.cls-1{isolation:isolate;}.cls-2{fill:#fd0;}.cls-3{fill:#76b7d8;}.cls-4{fill:#e69a63;}.cls-5{fill:#0b1213;}.cls-6{fill:#f0bb8f;opacity:0.4;mix-blend-mode:multiply;}.cls-7{fill:#fdc300;}.cls-8{fill:#5497b7;}.cls-9{fill:#7d4e24;}</style></defs><title>Character 06</title><g class="cls-1"><g id="Layer_2" data-name="Layer 2"><g id="Temp"><rect class="cls-2" x="15.01" y="63.91" width="85.02" height="29.7"/><path class="cls-3" d="M100,93.62H15a29.7,29.7,0,0,0,29.7,29.7H70.33A29.7,29.7,0,0,0,100,93.62Z"/><path class="cls-4" d="M100,41V29.7A29.7,29.7,0,0,0,70.33,0H44.71A29.7,29.7,0,0,0,15,29.7V63.91h85v-8A7.43,7.43,0,1,0,100,41Z"/><rect class="cls-5" x="40.51" y="45.06" width="2" height="7.49" rx="0.85"/><rect class="cls-5" x="60.64" y="45.06" width="2" height="7.49" rx="0.85"/><path class="cls-6" d="M53.85,0H44.71A29.7,29.7,0,0,0,15,29.7V63.91h9.14V29.7A29.7,29.7,0,0,1,53.85,0Z"/><rect class="cls-7" x="15.01" y="63.91" width="9.14" height="29.7"/><path class="cls-8" d="M24.15,93.62H15a29.7,29.7,0,0,0,29.7,29.7h9.14A29.7,29.7,0,0,1,24.15,93.62Z"/><path class="cls-2" d="M65.9,138.7a7.43,7.43,0,0,0-7.42,7.43H73.33A7.43,7.43,0,0,0,65.9,138.7Z"/><path class="cls-2" d="M49.05,138.7a7.43,7.43,0,0,0-7.42,7.43H56.48A7.43,7.43,0,0,0,49.05,138.7Z"/><path class="cls-3" d="M65.9,138.7a7.52,7.52,0,0,1,2.69.51V126a2.69,2.69,0,0,0-5.37,0v13.21A7.51,7.51,0,0,1,65.9,138.7Z"/><path class="cls-3" d="M49.05,138.7a7.43,7.43,0,0,1,2.68.51V126a2.68,2.68,0,0,0-5.36,0v13.21A7.47,7.47,0,0,1,49.05,138.7Z"/><path class="cls-5" d="M64.64,57.82a.51.51,0,0,1-.5.5H52.52a.51.51,0,0,1-.5-.5.5.5,0,0,1,.5-.5H64.14A.5.5,0,0,1,64.64,57.82Z"/><path class="cls-9" d="M84.78,3.75l-.13-.06c-.46-.26-.92-.5-1.39-.73l-.52-.23-1-.43L81.09,2l-.85-.31-.73-.25c-.46-.15-.91-.29-1.38-.41-.3-.09-.61-.16-.91-.23L76.56.67c-.33-.07-.65-.14-1-.19L75,.38A29.93,29.93,0,0,0,70.33,0H0A29.7,29.7,0,0,0,29.7,29.7H55.32a29.53,29.53,0,0,0,17.75-5.89A29.71,29.71,0,0,0,100,41V29.7A29.7,29.7,0,0,0,84.78,3.75Z"/><circle class="cls-4" cx="85.18" cy="101.04" r="7.43"/></g></g></g></svg>