<svg xmlns="http://www.w3.org/2000/svg" viewBox="0 0 92.45 167.96"><defs><style>.cls-1{isolation:isolate;}.cls-2{fill:#535d62;}.cls-3{fill:#67737a;}.cls-4,.cls-5{fill:#f0bb8f;}.cls-5{opacity:0.4;mix-blend-mode:multiply;}.cls-6{fill:#0b1213;}.cls-7{fill:#3d4548;}.cls-8{fill:#fff;}</style></defs><title>Character 02</title><g class="cls-1"><g id="Layer_2" data-name="Layer 2"><g id="Temp"><path class="cls-2" d="M85,115.45H0a29.7,29.7,0,0,0,29.7,29.7H55.32A29.7,29.7,0,0,0,85,115.45Z"/><polygon class="cls-3" points="50.28 85.74 35.54 107.27 20.79 85.74 0 85.74 0 115.44 85.02 115.44 85.02 85.74 50.28 85.74"/><circle class="cls-4" cx="67.74" cy="122.87" r="7.43"/><path class="cls-5" d="M62.74,122.87A7.42,7.42,0,0,1,69,115.55a8.14,8.14,0,0,0-1.22-.1,7.43,7.43,0,0,0,0,14.85,8.14,8.14,0,0,0,1.22-.11A7.42,7.42,0,0,1,62.74,122.87Z"/><path class="cls-4" d="M85,62.87V51.53a29.7,29.7,0,0,0-29.7-29.7H29.7A29.7,29.7,0,0,0,0,51.53V85.74H85v-8a7.43,7.43,0,1,0,0-14.85Z"/><rect class="cls-6" x="25.5" y="66.89" width="2" height="7.49" rx="0.85"/><rect class="cls-6" x="45.63" y="66.89" width="2" height="7.49" rx="0.85"/><path class="cls-6" d="M49.54,79.65a.5.5,0,0,1-.5.5H37.43a.5.5,0,0,1-.5-.5.5.5,0,0,1,.5-.5H49A.5.5,0,0,1,49.54,79.65Z"/><path class="cls-5" d="M38.84,21.83H29.7A29.7,29.7,0,0,0,0,51.53V85.74H9.14V51.53A29.7,29.7,0,0,1,38.84,21.83Z"/><rect class="cls-7" y="85.74" width="9.14" height="29.7"/><path class="cls-7" d="M9.14,115.45H0a29.7,29.7,0,0,0,29.7,29.7h9.14A29.7,29.7,0,0,1,9.14,115.45Z"/><path class="cls-7" d="M50.89,160.53A7.42,7.42,0,0,0,43.47,168H58.32A7.43,7.43,0,0,0,50.89,160.53Z"/><path class="cls-7" d="M34,160.53A7.42,7.42,0,0,0,26.62,168H41.47A7.43,7.43,0,0,0,34,160.53Z"/><path class="cls-2" d="M50.89,160.53a7.22,7.22,0,0,1,2.68.51V147.83a2.68,2.68,0,1,0-5.36,0V161A7.3,7.3,0,0,1,50.89,160.53Z"/><path class="cls-2" d="M34,160.53a7.22,7.22,0,0,1,2.68.51V147.83a2.68,2.68,0,0,0-5.36,0V161A7.26,7.26,0,0,1,34,160.53Z"/><path class="cls-7" d="M80.64,30.7H4.38a2.56,2.56,0,0,1,0-5.11H80.64a2.56,2.56,0,0,1,0,5.11Z"/><path class="cls-3" d="M68.1,25.59a25.59,25.59,0,1,0-51.18,0Z"/><polygon class="cls-8" points="35.54 107.27 50.28 85.74 20.79 85.74 35.54 107.27"/><polygon class="cls-7" points="31.31 101.1 35.54 107.27 39.76 101.1 36.37 85.74 34.7 85.74 31.31 101.1"/><path class="cls-2" d="M45.36.16A26.77,26.77,0,0,0,42.51,0,25.59,25.59,0,0,0,16.92,25.59h5.7A25.59,25.59,0,0,1,45.36.16Z"/></g></g></g></svg>