<svg xmlns="http://www.w3.org/2000/svg" viewBox="0 0 92.45 146.13"><defs><style>.cls-1{isolation:isolate;}.cls-2{fill:#814d99;}.cls-3{fill:#f4cbab;}.cls-4{fill:#0b1213;}.cls-5{fill:#6f3a86;}.cls-5,.cls-7{opacity:0.4;mix-blend-mode:multiply;}.cls-6{fill:#a783b8;}.cls-8{fill:#f0bb8f;}</style></defs><title>Character 04</title><g class="cls-1"><g id="Layer_2" data-name="Layer 2"><g id="Temp"><path class="cls-2" d="M0,55.89V93.62a29.7,29.7,0,0,0,29.7,29.7H55.32A29.7,29.7,0,0,0,85,93.62V55.89Z"/><path class="cls-3" d="M85,55.89v-8a29.7,29.7,0,0,0-29.7-29.7H29.7A29.7,29.7,0,0,0,0,47.87v8Z"/><path class="cls-2" d="M85,41V29.7A29.7,29.7,0,0,0,55.32,0H29.7A29.7,29.7,0,0,0,0,29.7V47.87a29.7,29.7,0,0,1,29.7-29.7H55.32A29.7,29.7,0,0,1,85,47.87v8A7.43,7.43,0,1,0,85,41Z"/><circle class="cls-3" cx="70.17" cy="101.04" r="7.43"/><rect class="cls-4" x="25.5" y="45.06" width="2" height="7.49" rx="0.85"/><rect class="cls-4" x="45.63" y="45.06" width="2" height="7.49" rx="0.85"/><path class="cls-5" d="M9.14,93.62H0a29.7,29.7,0,0,0,29.7,29.7h9.14A29.7,29.7,0,0,1,9.14,93.62Z"/><path class="cls-2" d="M50.89,138.7a7.43,7.43,0,0,0-7.42,7.43H58.32A7.43,7.43,0,0,0,50.89,138.7Z"/><path class="cls-2" d="M34,138.7a7.43,7.43,0,0,0-7.42,7.43H41.47A7.43,7.43,0,0,0,34,138.7Z"/><path class="cls-2" d="M50.89,138.7a7.43,7.43,0,0,1,2.68.51V126a2.68,2.68,0,0,0-5.36,0v13.21A7.51,7.51,0,0,1,50.89,138.7Z"/><path class="cls-2" d="M34,138.7a7.43,7.43,0,0,1,2.68.51V126a2.68,2.68,0,0,0-5.36,0v13.21A7.47,7.47,0,0,1,34,138.7Z"/><path class="cls-6" d="M0,55.89v8A29.71,29.71,0,0,0,29.7,93.62H55.32A29.71,29.71,0,0,0,85,63.91v-8Z"/><path class="cls-6" d="M55.32,9.7H29.7C13.3,9.7,0,26,0,46.07v1.8a29.7,29.7,0,0,1,29.7-29.7H55.32A29.7,29.7,0,0,1,85,47.87v-1.8C85,26,71.72,9.7,55.32,9.7Z"/><path class="cls-5" d="M0,47.87A29.58,29.58,0,0,1,9.34,26.26,29.71,29.71,0,0,1,38.84,0H29.7A29.7,29.7,0,0,0,0,29.7"/><g class="cls-7"><path class="cls-8" d="M9.14,55.89V29.7a30.12,30.12,0,0,1,.2-3.44A29.58,29.58,0,0,0,0,47.87v8Z"/></g><rect class="cls-5" y="55.89" width="9.14" height="37.72"/></g></g></g></svg>