<svg xmlns="http://www.w3.org/2000/svg" viewBox="0 0 92.61 130.74"><defs><style>.cls-1{isolation:isolate;}.cls-2,.cls-9{fill:#f0bb8f;}.cls-3{fill:#535d62;}.cls-4{fill:#df5458;}.cls-5{fill:#d20a11;}.cls-6{fill:#0b1213;}.cls-7{fill:#b81210;}.cls-8{fill:none;stroke:#b81210;stroke-miterlimit:10;}.cls-9{opacity:0.4;mix-blend-mode:multiply;}.cls-10{fill:#3d4548;}</style></defs><title>Character 03</title><g class="cls-1"><g id="Layer_2" data-name="Layer 2"><g id="Temp"><path class="cls-2" d="M85.19,41V29.7A29.71,29.71,0,0,0,55.48,0H29.87A29.71,29.71,0,0,0,.16,29.7V63.91h85v-8a7.43,7.43,0,0,0,0-14.85Z"/><path class="cls-3" d="M42.64,0H29.87A29.71,29.71,0,0,0,.16,29.7V41A42.5,42.5,0,0,0,42.64,0Z"/><rect class="cls-4" x="0.16" y="63.91" width="85.02" height="29.7"/><path class="cls-5" d="M85.19,93.62H.16a29.71,29.71,0,0,0,29.71,29.7H55.48A29.71,29.71,0,0,0,85.19,93.62Z"/><rect class="cls-6" x="25.66" y="45.06" width="2" height="7.49" rx="0.85"/><rect class="cls-6" x="45.79" y="45.06" width="2" height="7.49" rx="0.85"/><path class="cls-6" d="M49.71,57.82a.51.51,0,0,1-.5.5H37.59a.51.51,0,0,1-.5-.5.5.5,0,0,1,.5-.5H49.21A.5.5,0,0,1,49.71,57.82Z"/><rect class="cls-5" x="0.16" y="63.91" width="9.14" height="29.7"/><path class="cls-7" d="M9.3,93.62H.16a29.71,29.71,0,0,0,29.71,29.7H39A29.71,29.71,0,0,1,9.3,93.62Z"/><path class="cls-5" d="M51.06,123.32a7.43,7.43,0,0,0-7.43,7.42H58.48A7.42,7.42,0,0,0,51.06,123.32Z"/><path class="cls-5" d="M34.21,123.32a7.43,7.43,0,0,0-7.43,7.42H41.63A7.42,7.42,0,0,0,34.21,123.32Z"/><line class="cls-8" x1="0.16" y1="93.62" x2="85.19" y2="63.91"/><line class="cls-8" x1="17.99" y1="93.62" x2="85.19" y2="70.14"/><line class="cls-8" x1="35.81" y1="93.62" x2="85.19" y2="76.37"/><line class="cls-8" x1="42.68" y1="93.62" x2="42.68" y2="123.32"/><line class="cls-8" x1="49.9" y1="93.62" x2="49.9" y2="123.32"/><line class="cls-8" x1="35.81" y1="93.62" x2="35.81" y2="123.32"/><path class="cls-3" d="M85.19,41V29.7A29.71,29.71,0,0,0,55.48,0H42.71A42.5,42.5,0,0,0,85.19,41Z"/><circle class="cls-6" cx="42.71" cy="37.66" r="1.53"/><path class="cls-9" d="M.16,41V29.7A29.54,29.54,0,0,1,4.9,13.63,29.54,29.54,0,0,0,.16,29.7V63.91H9.3V40.05A43,43,0,0,1,.16,41Z"/><path class="cls-10" d="M.85,23.36C.71,24,.59,24.65.49,25.3.59,24.65.71,24,.85,23.36Z"/><path class="cls-10" d="M29.87,0a29.72,29.72,0,0,0-27,17.24c.29-.62.6-1.24.94-1.84-.34.61-.65,1.22-.94,1.84l0,.05c-.28.61-.54,1.24-.78,1.87l0,0c-.24.63-.46,1.28-.66,1.94a1,1,0,0,1,0,.14c-.17.58-.32,1.17-.46,1.76,0,.11-.05.21-.07.32C.71,24,.59,24.65.49,25.3a30.49,30.49,0,0,0-.33,4.4V41a43,43,0,0,0,9.14-1V29.7A29.71,29.71,0,0,1,39,0Z"/><path class="cls-10" d="M1.38,21.28c-.17.58-.32,1.17-.46,1.76C1.06,22.45,1.21,21.86,1.38,21.28Z"/><path class="cls-10" d="M2.88,17.29c-.28.61-.54,1.24-.78,1.87C2.34,18.53,2.6,17.9,2.88,17.29Z"/><path class="cls-10" d="M2.08,19.2c-.24.63-.46,1.28-.66,1.94C1.62,20.48,1.84,19.83,2.08,19.2Z"/><circle class="cls-2" cx="70.34" cy="101.04" r="7.43"/></g></g></g></svg>